<svg xmlns="http://www.w3.org/2000/svg">
    <symbol id="triumph" viewBox="0 0 340 340" height="75" width="75">
        <path d="m308.02 226.71l-23.49 2.11c-4.64 12.97-11.44 25.04-20.4 35.6s-19.16 19.31-31.22 26.55l12.05 15.69 -17-12.37c-7.73 4.52-16.07 8.14-24.73 10.86s-17.93 4.52-27.2 5.73l0 18.7 -27.2 7.54 0-26.24c-16.38-1.81-31.53-6.33-45.75-13.57s-26.58-16.59-37.09-27.75c-10.51-11.46-18.85-24.43-25.04-38.91 -5.87-14.48-8.97-30.17-8.97-46.76 0-16.89 3.09-32.58 9.58-47.36 6.18-15.08 14.84-28.05 25.96-39.52 10.82-11.46 23.8-20.51 38.64-27.75 14.53-6.94 30.6-11.16 47.6-12.07l1.86-54.3 13.6 0 1.86 54.3c17 0.9 33.07 5.13 47.91 12.07 14.84 7.24 27.82 16.29 38.64 27.75 11.13 11.46 19.78 24.43 25.96 39.52 6.49 14.78 9.58 30.47 9.58 47.36 0 14.48-2.16 27.45-6.49 39.52l21.33 3.32 0.01 0zm-159.81-25.64l4.94-129.41c-14.84 1.21-28.75 4.83-41.73 11.16 -12.67 6.03-23.8 14.48-33.38 24.43 -9.89 10.26-17.31 21.72-22.87 34.99 -5.56 12.97-8.35 27.15-8.35 41.63s2.78 28.36 8.04 41.03c5.25 12.97 12.37 24.43 21.64 34.69 8.97 9.95 20.09 18.1 32.46 24.43s25.66 10.56 39.87 12.37l0-44.04 -1.54-6.64 -44.82 22.32 30.6-42.84 -70.47-46.46 85.62 22.32zm44.2 7.24l79.44 12.67c4.64-11.76 6.8-24.13 6.8-37.1 0-14.78-2.78-28.96-8.35-41.93 -5.56-13.27-12.98-24.74-22.56-34.69 -9.58-10.26-21.02-18.4-34-24.43 -12.98-6.33-26.89-9.95-42.04-11.16l4.64 118.55 60.58-43.44 -44.51 61.54zm-1.24 28.05l33.07 43.44c9.58-6.03 18.24-13.27 25.66-21.72 7.73-8.45 13.91-17.5 18.55-27.75l-77.27 6.03 0 0zm-15.15 19l0 41.03c6.8-0.9 13.6-2.11 20.09-4.22 6.49-1.81 12.98-4.52 18.85-7.54l-38.95-29.26 0 0z"/>
    </symbol>
    <symbol id="advantage" viewBox="0 0 340 340" width="340" height="340">
        <path d="m53 187.33l-4.27-1.42c-2.56-1.14-5.69-2.56-9.68-5.12s-8.26-5.98-12.81-10.53c-4.55-4.84-9.11-10.82-13.66-18.5l-0.57 4.84 0 9.96c1.14 8.54 3.7 16.23 7.4 22.77 3.7 6.83 7.97 12.53 12.81 17.65 4.55 5.12 9.68 9.39 14.8 12.81s9.96 6.26 14.23 8.54c4.55 1.99 7.97 3.7 10.82 4.55l4.55 1.71 2.85 1.99 0.57 3.7 -3.13 2.56 -7.4 2.56c-3.13 0.57-6.26 0.85-9.96 0.57 -3.7 0-7.4-0.85-11.39-2.28 1.99 1.99 4.84 4.55 8.26 7.69s7.4 6.55 11.96 9.96c4.55 3.7 9.96 7.12 15.94 10.82 5.69 3.7 12.24 7.12 19.36 10.25s14.23 5.69 21.92 7.97c7.4 2.28 14.52 3.99 20.78 5.41 6.26 1.14 11.67 1.99 15.94 1.99 4.27 0.28 6.55-0.28 7.12-1.14l0-0.57 1.14 0 0.28 0.57c0.57 0.85 2.85 1.42 7.12 1.14 4.27 0 9.68-0.85 15.94-1.99 6.26-1.42 13.38-3.13 20.78-5.41 7.69-2.28 14.8-4.84 21.92-7.97 6.83-3.13 13.38-6.55 19.07-10.25 5.98-3.7 11.39-7.12 16.23-10.82 4.55-3.42 8.54-6.83 11.96-9.96s6.26-5.69 8.26-7.69c-3.99 1.42-7.69 2.28-11.39 2.28 -3.7 0.28-7.12 0-10.25-0.57l-7.4-2.56 -3.13-2.56 0.85-3.7 2.56-1.99 4.55-1.71c2.85-0.85 6.26-2.56 10.82-4.55 4.27-2.28 9.11-5.12 14.23-8.54s10.25-7.69 14.8-12.81c4.84-5.12 9.11-10.82 12.81-17.36 3.7-6.83 6.26-14.52 7.4-23.06l0-9.96 -0.57-4.84c-4.55 7.69-9.11 13.66-13.66 18.5 -4.55 4.55-8.82 7.97-12.81 10.53 -3.7 2.56-6.83 3.99-9.39 5.12l-4.55 1.42 -4.55-2.28 -0.28-5.41c1.71-3.13 3.42-6.26 5.41-9.39s4.27-6.26 6.55-9.68c5.69-7.4 9.11-16.8 10.25-27.9 1.42-11.1 0.28-22.49-3.42-33.88 -2.56-8.26-6.26-15.09-11.1-21.07s-10.53-11.1-16.8-15.66c-6.26-4.27-13.09-8.26-20.21-11.39s-14.52-5.98-21.63-8.54l-2.28 0c7.97 4.84 13.95 9.96 18.22 15.66s7.12 11.1 8.54 16.8 1.71 11.39 0.85 17.08c-0.85 5.41-1.99 10.82-4.27 15.94 -4.55 11.96-12.81 24.2-24.48 36.15 8.26 13.66 13.09 26.47 14.23 38.43 1.14 12.24 0 23.06-3.7 33.31 -3.42 9.96-8.26 19.07-14.8 27.33 -6.55 7.97-13.38 15.09-20.21 20.78 -7.12 5.98-13.38 10.53-19.36 14.23 -5.98 3.42-9.96 5.69-12.24 6.83l-3.13 0c-2.28-1.14-6.26-3.42-12.24-6.83 -6.26-3.7-12.53-8.26-19.64-14.23 -6.83-5.69-13.66-12.81-20.21-20.78 -6.55-8.26-11.39-17.36-14.8-27.33 -3.42-10.25-4.55-21.07-3.42-33.02s5.98-24.77 14.23-38.71c-11.67-11.96-19.93-24.2-24.48-36.15 -2.28-5.12-3.42-10.53-4.27-15.94 -0.85-5.69-0.57-11.39 0.85-17.08s4.27-11.1 8.54-16.8 10.25-10.82 18.22-15.66l-2.56 0c-7.12 2.56-14.23 5.41-21.35 8.54s-13.95 7.12-20.21 11.39c-6.26 4.55-11.96 9.68-16.8 15.66s-8.54 12.81-11.1 21.07c-3.7 11.1-4.84 22.49-3.42 33.59 1.14 11.1 4.55 20.78 9.96 28.18 2.28 3.42 4.55 6.55 6.55 9.68 2.28 3.13 3.99 6.26 5.69 9.39l-0.57 5.41 -4.55 2.28zm105.04-63.2c3.7 1.71 7.69 2.28 11.96 2.28s8.26-0.57 11.96-2.28 7.12-3.99 9.96-6.83 5.12-6.26 6.55-10.25c1.71-3.7 2.56-7.97 2.56-12.24s-0.85-8.54-2.56-12.24c-1.42-3.99-3.7-7.12-6.55-10.25 -2.85-2.85-6.26-5.12-9.96-6.83 -3.7-1.42-7.69-2.28-11.96-2.28s-8.26 0.85-11.96 2.28c-3.7 1.71-7.12 3.99-9.96 6.83 -2.85 3.13-5.12 6.26-6.55 10.25 -1.71 3.7-2.56 7.97-2.56 12.24s0.85 8.54 2.56 12.24c1.42 3.99 3.7 7.4 6.55 10.25s6.26 5.12 9.96 6.83z"/>
    </symbol>
    <symbol id="failure" viewBox="0 0 340 340" width="340" height="340">
        <path d="m81.88 50.01c-28.21-6.27-55.38-14.98-81.85-26.82 23.34 17.07 44.58 36.22 64.09 57.82 19.16 21.25 36.22 44.24 51.2 69.31 14.63 24.73 26.47 51.2 35.88 79.41s15.67 57.12 18.81 87.08c3.13-29.95 9.4-58.86 18.81-87.08s21.25-54.68 35.88-79.76c14.98-24.73 32.04-48.07 51.2-69.31 19.51-21.6 40.75-40.75 64.09-57.47 -26.12 11.49-53.29 20.55-81.85 26.82 -28.21 6.27-57.47 9.4-88.12 9.4s-59.91-3.13-88.12-9.4z"/>
    </symbol>
    <symbol id="success" viewBox="0 0 340 340" width="340" height="340">
        <path d="m176.63 3.06l36.98 102.22 94.9-25.82 -57.57 80.59 79.55 48.15 -90.01 14.3 17.1 107.8 -80.94-80.24 -84.43 86.87 18.49-113.39 -91.41-15 89.31-47.1 -99.08-108.5 138.86 66.29 28.26-116.18 0 0zm0 211.77l42.91 42.56 -9.07-55.47 48.84-7.68 -44.66-26.86 32.1-45.01 -49.89 13.61 -16.4-45.35 -15.35 61.75 -57.91-27.56 39.42 43.26 -52.33 27.91 46.75 7.33 -9.42 57.22 45.01-45.7 0 0z"/>
    </symbol>
    <symbol id="threat" viewBox="0 0 340 340" width="340" height="340">
        <path stroke="null" d="m211.36 276.91l-82.73 0 -24.89 43.47 132.15 0 -24.54-43.47zm-112.87-17.88l-42.06-70.81 -49.43 0 65.9 114.27 25.59-43.47zm234.51-70.81l-50.13 0 -41.36 70.81 25.59 43.47 65.9-114.27zm-204.36 52.93l82.73 0 40.31-71.16 -40.31-71.16 -82.73 0 -40.66 71.16 40.66 71.16zm65.9-113.57l24.19 42.41 -24.19 42.77 -49.43 0 -24.19-42.77 24.19-42.41 49.43 0zm-187.54 24.54l49.43 0 41.36-70.81 -24.89-43.47 -65.9 114.27zm234.51-70.81l41.36 70.81 50.13 0 -65.9-114.27 -25.59 43.47zm-112.87-17.88l82.73 0 24.54-43.82 -132.15 0 24.89 43.82z" id="svg_2"/>
    </symbol>
    <symbol id="despair" viewBox="0 0 340 340" width="340" height="340">
        <path stroke="null" d="m8 53.98c12.61 9.29 24.9 19.59 36.18 30.21 -9.29 18.59-14.27 39.83-14.27 62.08 0 74.69 58.42 135.77 132.12 139.75 3.65 15.93 6.31 31.87 7.97 48.13 1.66-16.27 4.32-32.2 7.97-48.13 73.69-3.98 132.12-65.06 132.12-139.75 0-22.57-4.98-43.49-14.27-62.41 11.29-10.62 23.57-20.58 36.18-29.88 -14.27 6.31-28.88 11.95-43.82 16.6 -24.9-38.84-68.72-64.73-118.18-64.73 -49.79 0-93.28 25.89-118.18 64.73 -14.94-4.65-29.54-9.96-43.82-16.6zm162-32.2c42.49 0 79.67 21.25 102.24 53.45 -5.98 1.66-11.95 2.99-18.26 4.32 -26.89 6.31-54.77 9.29-83.99 9.29s-57.1-2.99-83.99-8.96c-6.31-1.33-12.28-2.99-18.26-4.65 22.24-32.2 59.75-53.45 102.24-53.45zm124.48 124.48c0 64.73-49.46 117.85-112.53 123.82 1.99-6.31 3.65-12.95 5.98-19.25 8.96-26.56 20.25-51.79 34.19-75.69 14.27-23.9 30.54-45.81 48.8-66.39l12.95-13.28c6.64 15.6 10.62 32.53 10.62 50.79zm-136.43 123.82c-63.07-5.98-112.53-59.09-112.53-123.82 0-17.93 3.98-35.19 10.62-50.46 4.32 4.32 8.63 8.63 12.95 13.28 18.26 20.58 34.52 42.49 48.8 66.39 13.94 23.57 25.23 48.8 34.19 75.35 2.32 6.31 3.98 12.95 5.98 19.25z" id="svg_2"/>
    </symbol>
</svg>